<?xml version="1.0" standalone="no"?>
<!DOCTYPE svg PUBLIC "-//W3C//DTD SVG 20010904//EN"
 "http://www.w3.org/TR/2001/REC-SVG-20010904/DTD/svg10.dtd">
<svg version="1.0" xmlns="http://www.w3.org/2000/svg"
 width="323.000000pt" height="298.000000pt" viewBox="0 0 323.000000 298.000000"
 preserveAspectRatio="xMidYMid meet">

<g transform="translate(0.000000,298.000000) scale(0.100000,-0.100000)"
fill="#000000" stroke="none">
<path d="M2225 2541 c-190 -70 -259 -120 -289 -209 -16 -46 -21 -138 -10 -179
l6 -22 83 30 c252 89 314 146 323 298 2 42 0 86 -5 97 -8 22 -8 22 -108 -15z"/>
<path d="M538 2554 c-26 -8 -76 -36 -110 -62 -52 -39 -69 -60 -100 -122 l-38
-75 0 -622 c0 -603 1 -624 21 -677 23 -64 91 -144 152 -179 91 -54 122 -57
504 -57 l353 0 0 110 0 110 -287 0 c-330 0 -399 8 -449 52 -58 51 -59 59 -59
643 l0 531 25 48 c18 35 37 55 65 70 39 20 54 21 415 21 366 0 376 -1 423 -22
38 -17 52 -31 67 -65 11 -24 20 -55 20 -70 l0 -28 115 0 115 0 0 58 c-1 112
-58 217 -155 285 -97 67 -96 67 -588 66 -357 0 -451 -3 -489 -15z"/>
<path d="M2389 2513 c-12 -3 -19 -21 -24 -60 -19 -152 -95 -227 -305 -303 -36
-13 -66 -24 -68 -25 -8 -6 23 -65 35 -65 8 0 11 4 8 10 -3 5 0 7 8 4 34 -13
273 94 319 143 42 44 71 120 72 188 1 63 -9 116 -22 114 -4 -1 -14 -3 -23 -6z"/>
<path d="M1215 1953 c-16 -8 -41 -25 -54 -37 -49 -44 -51 -60 -51 -441 l0
-355 125 0 125 0 0 310 c0 299 1 311 21 331 19 19 29 20 229 17 155 -2 212 -6
222 -16 8 -8 14 -47 16 -102 l4 -90 149 0 149 0 0 89 c0 125 -8 121 247 121
170 0 204 -2 217 -16 14 -13 16 -57 16 -330 l0 -314 125 0 125 0 0 369 c0 365
0 368 -22 401 -13 19 -43 44 -67 57 -44 23 -48 23 -384 23 l-339 0 -35 -35
-35 -35 -39 35 -39 35 -338 0 c-287 -1 -341 -3 -367 -17z"/>
<path d="M2090 1240 l0 -210 210 0 210 0 0 210 0 210 -210 0 -210 0 0 -210z"/>
<path d="M1600 750 l0 -210 210 0 210 0 0 210 0 210 -210 0 -210 0 0 -210z"/>
<path d="M402 408 c-7 -7 -12 -28 -12 -48 0 -57 47 -84 70 -40 13 24 2 27 -15
3 -11 -15 -15 -15 -29 -4 -20 17 -21 65 -1 81 12 10 19 10 27 2 17 -17 33 -15
18 3 -15 18 -42 19 -58 3z"/>
<path d="M521 358 c2 -58 2 -60 9 -23 l7 40 8 -33 c10 -44 24 -50 31 -13 8 40
25 40 20 1 -2 -16 1 -30 5 -30 5 0 9 27 9 60 0 33 -4 60 -9 60 -6 0 -16 -21
-23 -47 l-14 -48 -13 48 c-8 26 -18 47 -22 47 -5 0 -8 -28 -8 -62z"/>
<path d="M740 360 l0 -60 30 0 c24 0 33 6 41 27 11 30 4 74 -14 85 -7 4 -22 8
-34 8 -21 0 -23 -4 -23 -60z m60 0 c0 -25 -5 -40 -16 -44 -25 -10 -34 2 -34
43 0 44 4 51 31 44 14 -4 19 -14 19 -43z"/>
<path d="M1610 401 c0 -12 -7 -18 -17 -17 -14 1 -18 -7 -18 -39 0 -34 3 -40
23 -43 21 -3 22 0 22 57 0 34 -2 61 -5 61 -3 0 -5 -8 -5 -19z m-2 -56 c-4 -33
-22 -33 -26 0 -2 18 1 25 13 25 12 0 15 -7 13 -25z"/>
<path d="M1754 404 c3 -9 9 -33 12 -55 8 -49 21 -59 30 -22 12 55 17 58 27 16
12 -53 23 -55 32 -5 3 20 9 48 11 62 5 20 3 22 -5 10 -6 -8 -11 -25 -11 -37 0
-13 -4 -23 -10 -23 -5 0 -10 10 -10 23 0 23 -16 55 -23 47 -2 -3 -9 -23 -14
-45 l-10 -40 -8 43 c-4 23 -12 42 -17 42 -6 0 -7 -7 -4 -16z"/>
<path d="M2140 401 c0 -11 -7 -18 -17 -17 -20 1 -34 -41 -21 -66 5 -10 18 -18
28 -18 18 0 20 7 20 60 0 33 -2 60 -5 60 -3 0 -5 -8 -5 -19z m-2 -58 c-4 -39
-28 -42 -28 -4 0 21 5 31 16 31 11 0 14 -8 12 -27z"/>
<path d="M876 374 c-19 -18 -20 -28 -6 -55 15 -27 48 -24 56 5 6 25 -10 66
-26 66 -5 0 -16 -7 -24 -16z m38 -20 c7 -19 -12 -47 -25 -38 -5 3 -9 16 -9 30
0 27 24 33 34 8z"/>
<path d="M981 368 c-11 -31 2 -62 27 -66 16 -2 23 3 27 21 13 52 -36 92 -54
45z m43 -13 c7 -20 -4 -47 -18 -42 -17 6 -20 57 -3 57 8 0 17 -7 21 -15z"/>
<path d="M1092 343 c1 -44 2 -45 5 -10 2 20 8 37 14 37 5 0 9 5 9 10 0 6 -7
10 -15 10 -11 0 -15 -11 -13 -47z"/>
<path d="M1187 383 c-15 -14 -6 -41 15 -47 18 -4 20 -8 10 -18 -10 -10 -15
-10 -22 2 -8 13 -10 12 -10 -2 0 -23 38 -24 47 -2 4 11 -3 24 -18 36 -24 20
-24 20 -1 15 25 -6 30 8 6 17 -19 7 -19 7 -27 -1z"/>
<path d="M1357 384 c-13 -14 -7 -22 13 -17 11 3 20 1 20 -5 0 -5 -9 -12 -20
-15 -12 -3 -20 -14 -20 -26 0 -16 6 -21 28 -21 28 0 28 1 23 42 -6 41 -26 60
-44 42z m33 -53 c0 -12 -20 -25 -27 -18 -7 7 6 27 18 27 5 0 9 -4 9 -9z"/>
<path d="M1462 341 c1 -43 2 -44 5 -8 3 23 9 37 18 37 9 0 15 -14 18 -37 4
-33 4 -32 3 7 -1 39 -4 45 -23 46 -21 1 -23 -3 -21 -45z"/>
<path d="M1923 345 c0 -27 2 -38 4 -22 2 15 2 37 0 50 -2 12 -4 0 -4 -28z"/>
<path d="M1992 341 c1 -43 2 -44 5 -8 6 50 33 52 33 1 0 -19 4 -33 8 -30 5 3
6 22 3 43 -5 30 -11 38 -29 39 -20 1 -22 -3 -20 -45z"/>
<path d="M2211 368 c-11 -31 2 -62 27 -66 16 -2 23 3 27 21 13 52 -36 92 -54
45z m43 -13 c7 -20 -4 -47 -18 -42 -17 6 -20 57 -3 57 8 0 17 -7 21 -15z"/>
<path d="M2314 375 c12 -60 17 -75 26 -75 6 0 10 10 10 23 l1 22 13 -24 c15
-28 22 -21 30 34 l7 40 -15 -30 c-13 -26 -14 -27 -15 -8 -1 27 -21 42 -21 15
0 -32 -13 -34 -27 -5 -7 17 -11 20 -9 8z"/>
<path d="M2457 383 c-15 -14 -6 -41 15 -47 18 -4 20 -8 10 -18 -10 -10 -15
-10 -22 2 -8 13 -10 12 -10 -2 0 -23 38 -24 47 -2 4 11 -2 23 -16 33 -12 9
-19 20 -15 24 4 4 14 1 23 -6 14 -11 14 -10 2 6 -14 18 -24 21 -34 10z"/>
</g>
</svg>
